<svg xmlns="http://www.w3.org/2000/svg" viewBox="0 0 64 64" role="img" aria-label="Coffee POS">
  <defs>
    <linearGradient id="bg" x1="0" y1="0" x2="1" y2="1">
      <stop offset="0%" stop-color="#d88a4a" />
      <stop offset="100%" stop-color="#6e3e24" />
    </linearGradient>
  </defs>
  <rect x="2" y="2" width="60" height="60" rx="14" fill="url(#bg)" />
  <path d="M19 24h24a2 2 0 0 1 2 2v8a11 11 0 0 1-11 11h-6a11 11 0 0 1-11-11v-8a2 2 0 0 1 2-2Z" fill="#fff" />
  <path d="M44 27h4a6 6 0 0 1 0 12h-4" fill="none" stroke="#fff" stroke-width="3" stroke-linecap="round" />
  <path d="M24 49h16" stroke="#f6dfcc" stroke-width="3" stroke-linecap="round" />
  <path d="M27 17c-2 2-2 5 0 7M34 15c-2 2-2 5 0 7" stroke="#fbead9" stroke-width="2.5" stroke-linecap="round" fill="none" />
</svg>
